<svg width="24" height="24" viewBox="0 0 24 24" fill="none" xmlns="http://www.w3.org/2000/svg">
<g clip-path="url(#clip0_9_133)">
<path d="M22.9175 10.6388C22.9725 11.0788 23 11.5462 23 12C23 18.0775 18.0775 23 12 23C5.9225 23 1 18.0775 1 12C1 5.9225 5.9225 1 12 1C12.44 1 12.88 1.0275 13.32 1.0825" stroke="white" stroke-width="2" stroke-linecap="round" stroke-linejoin="round"/>
<path d="M8 16L8.71566 12.4217L19.7187 1.41866C20.2769 0.860446 21.1786 0.860446 21.7369 1.41866L22.5813 2.26314C23.1396 2.82136 23.1396 3.72309 22.5813 4.28131L11.5783 15.2843L8 16Z" stroke="white" stroke-width="2" stroke-linecap="round" stroke-linejoin="round"/>
</g>
<defs>
<clipPath id="clip0_9_133">
<rect width="24" height="24" fill="white"/>
</clipPath>
</defs>
</svg>
