<svg width="24" height="24" viewBox="0 0 24 24" fill="none" xmlns="http://www.w3.org/2000/svg">
<path d="M19.94 11.01C19.98 11.33 20 11.67 20 12C20 16.42 16.42 20 12 20C7.58 20 4 16.42 4 12C4 7.58 7.58 4 12 4C12.32 4 12.64 4.02 12.96 4.06" stroke="white" stroke-width="2" stroke-linecap="round" stroke-linejoin="round"/>
<path d="M10 14L10.5 11.5L16.79 5.21C17.18 4.82 17.81 4.82 18.2 5.21L18.79 5.8C19.18 6.19 19.18 6.82 18.79 7.21L12.5 13.5L10 14Z" stroke="white" stroke-width="2" stroke-linecap="round" stroke-linejoin="round"/>
<path d="M15.5 6.5L17.5 8.5" stroke="white" stroke-width="2" stroke-linecap="round" stroke-linejoin="round"/>
</svg>
