<svg width="24" height="24" viewBox="0 0 24 24" fill="none" xmlns="http://www.w3.org/2000/svg">
<path d="M16 16H18.1905C20.2952 16 22 14.21 22 12C22 9.79 20.2952 8 18.1905 8C17.8381 8 17.5048 8.07 17.1714 8.16C16.781 5.24 14.4 3 11.5238 3C8.37143 3 5.80952 5.69 5.80952 9C5.80952 9.42 5.84762 9.83 5.93333 10.22C5.6 10.08 5.2381 10 4.85714 10C3.27619 10 2 11.34 2 13C2 14.66 3.27619 16 4.85714 16H8" stroke="white" stroke-width="2" stroke-linecap="round" stroke-linejoin="round"/>
<path d="M12 22V13" stroke="white" stroke-width="2" stroke-linecap="round" stroke-linejoin="round"/>
<path d="M9 19L12 22L15 19" stroke="white" stroke-width="2" stroke-linecap="round" stroke-linejoin="round"/>
</svg>
