<svg width="24" height="24" viewBox="0 0 24 24" fill="none" xmlns="http://www.w3.org/2000/svg">
<g clip-path="url(#clip0_9_170)">
<path d="M1 7H23L15.6667 13.875V17H8.33333V13.875L1 7Z" stroke="white" stroke-width="2" stroke-linecap="round" stroke-linejoin="round"/>
<path d="M12 3C12.5523 3 13 2.55228 13 2C13 1.44772 12.5523 1 12 1C11.4477 1 11 1.44772 11 2C11 2.55228 11.4477 3 12 3Z" stroke="white" stroke-width="2" stroke-linecap="round" stroke-linejoin="round"/>
<path d="M20 3C20.5523 3 21 2.55228 21 2C21 1.44772 20.5523 1 20 1C19.4477 1 19 1.44772 19 2C19 2.55228 19.4477 3 20 3Z" stroke="white" stroke-width="2" stroke-linecap="round" stroke-linejoin="round"/>
<path d="M4 3C4.55228 3 5 2.55228 5 2C5 1.44772 4.55228 1 4 1C3.44772 1 3 1.44772 3 2C3 2.55228 3.44772 3 4 3Z" stroke="white" stroke-width="2" stroke-linecap="round" stroke-linejoin="round"/>
<path d="M12 23C12.5523 23 13 22.5523 13 22C13 21.4477 12.5523 21 12 21C11.4477 21 11 21.4477 11 22C11 22.5523 11.4477 23 12 23Z" stroke="white" stroke-width="2" stroke-linecap="round" stroke-linejoin="round"/>
</g>
<defs>
<clipPath id="clip0_9_170">
<rect width="24" height="24" fill="white"/>
</clipPath>
</defs>
</svg>
