<svg width="24" height="24" viewBox="0 0 24 24" fill="none" xmlns="http://www.w3.org/2000/svg">
<path d="M20 22.9911V17.3792C20 16.9262 19.7511 16.5086 19.3511 16.2954L15.2444 14.0833C14.5511 13.7102 14.3733 12.7862 14.9067 12.1999C15.7689 11.2493 16.4444 9.86341 16.4444 8.33537C16.4444 5.44808 14.3822 4 12 4C9.61778 4 7.55556 5.44808 7.55556 8.33537C7.55556 9.82787 8.20444 11.1694 9.02222 12.1199C9.54667 12.724 9.35111 13.6569 8.64 14.0122L4.67556 16.3043C4.25778 16.5086 4 16.935 4 17.4059V23" stroke="white" stroke-width="2" stroke-linecap="round" stroke-linejoin="round"/>
<path d="M1 15L3.06 13.6698C3.68222 13.3225 3.85333 12.4109 3.39444 11.8205C2.67889 10.8915 2.11111 9.58046 2.11111 8.12186C2.11111 5.76472 3.37029 4.38909 5 4" stroke="white" stroke-width="2" stroke-linecap="round" stroke-linejoin="round"/>
<path d="M23 15L20.94 13.6698C20.3178 13.3225 20.1467 12.4109 20.6056 11.8205C21.3211 10.8915 21.8889 9.58046 21.8889 8.12186C21.8889 5.76472 20.6297 4.38909 19 4" stroke="white" stroke-width="2" stroke-linecap="round" stroke-linejoin="round"/>
</svg>
