<svg xmlns="http://www.w3.org/2000/svg" width="24" height="24" fill="none" viewBox="0 0 24 24">
  <g class="Name=Collaboration">
    <path stroke="#fff" stroke-linecap="round" stroke-linejoin="round" d="m22.45 16.13-1.23-.69c-.57-.32-.72-1.11-.28-1.61.72-.82 1.17-1.99 1.17-3.3 0-2.47-1.6-4.02-3.57-4.02M5.53 6.5c-1.97 0-3.57 1.55-3.57 4.02 0 1.27.43 2.42 1.11 3.24.43.52.27 1.31-.32 1.62l-1.25.74m19.03 4.38v-2.63c0-.45-.7-.87-1.1-1.08l-4.14-2.22c-.7-.37-.88-1.31-.34-1.89.87-.96 1.41-2.34 1.41-3.87 0-2.9-1.94-5.3-4.34-5.3S7.69 5.9 7.69 8.8c0 1.49.52 2.84 1.34 3.8.52.61.33 1.54-.39 1.9l-3.99 2.3c-.42.21-1.13.64-1.13 1.1v2.6" class="icon-primary-stroke"/>
  </g>
</svg>
