<svg width="24" height="24" viewBox="0 0 24 24" fill="none" xmlns="http://www.w3.org/2000/svg">
<path d="M19 18.9922V16.7068C19 16.3104 18.7822 15.945 18.4322 15.7585L14.8389 13.8229C14.2322 13.4964 14.0767 12.688 14.5433 12.1749C15.2978 11.3431 15.8889 10.1305 15.8889 8.79345C15.8889 6.26707 14.0844 5 12 5C9.91556 5 8.11111 6.26707 8.11111 8.79345C8.11111 10.0994 8.67889 11.2732 9.39444 12.1049C9.85333 12.6335 9.68222 13.4498 9.06 13.7607L5.59111 15.7662C5.22556 15.945 5 16.3182 5 16.7301V19" stroke="white" stroke-width="2" stroke-linecap="round" stroke-linejoin="round"/>
<path d="M2 14.9517L4.06 13.7607C4.68222 13.4497 4.85333 12.6335 4.39444 12.1049C3.67889 11.2732 3.11111 10.0994 3.11111 8.79344C3.11111 6.68302 4.37029 5.45136 6 5.103" stroke="white" stroke-width="2" stroke-linecap="round" stroke-linejoin="round"/>
<path d="M22 14.9517L19.94 13.7607C19.3178 13.4497 19.1467 12.6335 19.6056 12.1049C20.3211 11.2732 20.8889 10.0994 20.8889 8.79344C20.8889 6.68302 19.6297 5.45136 18 5.103" stroke="white" stroke-width="2" stroke-linecap="round" stroke-linejoin="round"/>
</svg>
