<svg width="24" height="24" viewBox="0 0 24 24" fill="none" xmlns="http://www.w3.org/2000/svg">
<path d="M9 9.11178C8.81437 9.0394 8.61444 9 8.40541 9H4.8018C3.81081 9 3 9.9 3 11V13C3 14.1 3.81081 15 4.8018 15H8.40541C8.61367 15 8.81382 14.9612 9 14.8897" stroke="white" stroke-width="2" stroke-linecap="round" stroke-linejoin="round"/>
<path d="M15 9.10966C15.1849 9.03857 15.3829 9 15.5876 9H19.1959C20.1881 9 21 9.9 21 11V13C21 14.1 20.1881 15 19.1959 15H15.5876C15.3818 15 15.1842 14.9622 15 14.8921" stroke="white" stroke-width="2" stroke-linecap="round" stroke-linejoin="round"/>
<path d="M9 12H15" stroke="white" stroke-width="2" stroke-linecap="round" stroke-linejoin="round"/>
</svg>
