<svg xmlns="http://www.w3.org/2000/svg" width="24" height="24" fill="none" viewBox="0 0 24 24">
  <g class="Name=ObjectGear">
    <path stroke="#fff" stroke-linecap="round" stroke-linejoin="round" d="M12.58 15.08a3.5 3.5 0 1 0 0-7 3.5 3.5 0 0 0 0 7Z" class="icon-primary-stroke"/>
    <path stroke="#fff" stroke-linecap="round" stroke-linejoin="round" d="M20.08 11.58c0-.43-.04-.84-.11-1.25l1.7-1.53a9.78 9.78 0 0 0-.69-1.67l-2.28.12a7.437 7.437 0 0 0-1.77-1.77l.12-2.28c-.53-.28-1.09-.52-1.67-.69l-1.53 1.7c-.41-.07-.82-.11-1.25-.11-.43 0-.84.04-1.25.11l-1.53-1.7c-.58.18-1.14.41-1.67.69l.12 2.28c-.69.49-1.29 1.09-1.77 1.77l-2.28-.12c-.28.53-.52 1.09-.69 1.67l1.7 1.53c-.07.41-.11.82-.11 1.25 0 .43.04.84.11 1.25l-1.7 1.53c.18.58.41 1.14.69 1.67l2.28-.12c.49.69 1.09 1.29 1.77 1.77l-.12 2.28c.53.28 1.09.52 1.67.69l1.53-1.7c.41.07.82.11 1.25.11.43 0 .84-.04 1.25-.11l1.53 1.7a9.78 9.78 0 0 0 1.67-.69l-.12-2.28c.69-.49 1.29-1.09 1.77-1.77l2.28.12c.28-.53.52-1.09.69-1.67l-1.7-1.53c.07-.41.11-.82.11-1.25v0Z" class="icon-primary-stroke"/>
  </g>
</svg>
