<svg width="24" height="24" viewBox="0 0 24 24" fill="none" xmlns="http://www.w3.org/2000/svg">
<path d="M12 16C14.2091 16 16 14.2091 16 12C16 9.79086 14.2091 8 12 8C9.79086 8 8 9.79086 8 12C8 14.2091 9.79086 16 12 16Z" stroke="white" stroke-width="2" stroke-linecap="round" stroke-linejoin="round"/>
<path d="M21.0717 12C21.0717 11.4785 21.0232 10.9813 20.9383 10.484L23 8.62845C22.7817 7.92503 22.5028 7.24587 22.1632 6.60309L19.398 6.74862C18.8037 5.9118 18.0761 5.18412 17.2514 4.60198L17.3969 1.83682C16.7541 1.49724 16.075 1.20617 15.3716 1L13.516 3.06174C13.0187 2.97685 12.5215 2.92834 12 2.92834C11.4785 2.92834 10.9813 2.97685 10.484 3.06174L8.62845 1C7.92503 1.2183 7.24587 1.49724 6.60309 1.83682L6.74862 4.60198C5.9118 5.19625 5.18412 5.92392 4.60198 6.74862L1.83682 6.60309C1.49724 7.24587 1.20617 7.92503 1 8.62845L3.06174 10.484C2.97685 10.9813 2.92834 11.4785 2.92834 12C2.92834 12.5215 2.97685 13.0187 3.06174 13.516L1 15.3716C1.2183 16.075 1.49724 16.7541 1.83682 17.3969L4.60198 17.2514C5.19625 18.0882 5.92392 18.8159 6.74862 19.398L6.60309 22.1632C7.24587 22.5028 7.92503 22.7938 8.62845 23L10.484 20.9383C10.9813 21.0232 11.4785 21.0717 12 21.0717C12.5215 21.0717 13.0187 21.0232 13.516 20.9383L15.3716 23C16.075 22.7817 16.7541 22.5028 17.3969 22.1632L17.2514 19.398C18.0882 18.8037 18.8159 18.0761 19.398 17.2514L22.1632 17.3969C22.5028 16.7541 22.7938 16.075 23 15.3716L20.9383 13.516C21.0232 13.0187 21.0717 12.5215 21.0717 12V12Z" stroke="white" stroke-width="2" stroke-linecap="round" stroke-linejoin="round"/>
</svg>
