<svg width="24" height="24" viewBox="0 0 24 24" fill="none" xmlns="http://www.w3.org/2000/svg">
<path d="M12 15C13.6569 15 15 13.6569 15 12C15 10.3431 13.6569 9 12 9C10.3431 9 9 10.3431 9 12C9 13.6569 10.3431 15 12 15Z" stroke="white" stroke-width="2" stroke-linecap="round" stroke-linejoin="round"/>
<path d="M19.55 12.07C19.55 11.64 19.51 11.23 19.44 10.82L21.14 9.29C20.96 8.71 20.73 8.15 20.45 7.62L18.17 7.74C17.68 7.05 17.08 6.45 16.4 5.97L16.52 3.69C15.99 3.41 15.43 3.17 14.85 3L13.32 4.7C12.91 4.63 12.5 4.59 12.07 4.59C11.64 4.59 11.23 4.63 10.82 4.7L9.29 3C8.71 3.18 8.15 3.41 7.62 3.69L7.74 5.97C7.05 6.46 6.45 7.06 5.97 7.74L3.69 7.62C3.41 8.15 3.17 8.71 3 9.29L4.7 10.82C4.63 11.23 4.59 11.64 4.59 12.07C4.59 12.5 4.63 12.91 4.7 13.32L3 14.85C3.18 15.43 3.41 15.99 3.69 16.52L5.97 16.4C6.46 17.09 7.06 17.69 7.74 18.17L7.62 20.45C8.15 20.73 8.71 20.97 9.29 21.14L10.82 19.44C11.23 19.51 11.64 19.55 12.07 19.55C12.5 19.55 12.91 19.51 13.32 19.44L14.85 21.14C15.43 20.96 15.99 20.73 16.52 20.45L16.4 18.17C17.09 17.68 17.69 17.08 18.17 16.4L20.45 16.52C20.73 15.99 20.97 15.43 21.14 14.85L19.44 13.32C19.51 12.91 19.55 12.5 19.55 12.07V12.07Z" stroke="white" stroke-width="2" stroke-linecap="round" stroke-linejoin="round"/>
</svg>
