<svg width="24" height="24" viewBox="0 0 24 24" fill="none" xmlns="http://www.w3.org/2000/svg">
<path d="M12.3325 16C12.2326 16.4589 12.0051 16.8949 11.65 17.25L8.50001 20.41C7.51001 21.4 5.90001 21.4 4.91001 20.41L3.50001 19C2.51001 18.01 2.51001 16.4 3.50001 15.41L6.65 12.25C7.03091 11.864 7.50455 11.6289 8.00001 11.5422" stroke="white" stroke-width="2" stroke-linecap="round" stroke-linejoin="round"/>
<path d="M11.5359 8.00001C11.6233 7.50545 11.8575 7.03244 12.24 6.65L15.41 3.50001C16.4 2.51001 18.01 2.51001 19 3.50001L20.41 4.91001C21.4 5.90001 21.4 7.51001 20.41 8.50001L17.24 11.65C16.8874 12.0074 16.4553 12.2353 16 12.336" stroke="white" stroke-width="2" stroke-linecap="round" stroke-linejoin="round"/>
<path d="M9 15L15 9" stroke="white" stroke-width="2" stroke-linecap="round" stroke-linejoin="round"/>
</svg>
