<svg xmlns="http://www.w3.org/2000/svg" width="24" height="24" fill="none" viewBox="0 0 24 24">
  <g class="Name=ObjectCalendar">
    <path stroke="#fff" stroke-linecap="round" stroke-linejoin="round" d="M13.5 3.5h-2" class=":icon-primary-stroke"/>
    <path stroke="#fff" stroke-linecap="round" stroke-linejoin="round" d="M5.5 3.5c-1.1 0-2 .9-2 2v16h18v-16c0-1.1-.9-2-2-2m-16 5h18m-15 3v1m0 2v1m0 2v1m3-7v1m0 2v1m0 2v1m3-7v1m0 2v1m0 2v1m3-7v1m0 2v1m0 2v1m3-7v1m0 2v1m0 2v1m-10-13v-3m8 3v-3" class="icon-primary-stroke"/>
  </g>
</svg>
