<svg xmlns="http://www.w3.org/2000/svg" width="24" height="24" fill="none" viewBox="0 0 24 24">
  <g class="Name=TimerMark">
    <path stroke="#fff" stroke-linecap="round" stroke-linejoin="round" d="M10.5 5.5v-2m2-2h-4v2h4v-2Zm4 6 1-1m-1-1 2 2m-14 0-1-1m-1 1 2-2m6 9a1 1 0 1 0 0-2 1 1 0 0 0 0 2Zm0-2v-4m5 10 3 4 4-9" class="icon-primary-stroke"/>
    <path stroke="#fff" stroke-linecap="round" stroke-linejoin="round" d="M13.44 20.94A7.998 7.998 0 0 1 2.5 13.5c0-4.42 3.58-8 8-8s8 3.58 8 8c0 1.1-.22 2.16-.63 3.11" class="icon-primary-stroke"/>
  </g>
</svg>
