<svg xmlns="http://www.w3.org/2000/svg" width="24" height="24" fill="none" viewBox="0 0 24 24">
  <g class="Name=TimerPause">
    <path stroke="#fff" stroke-linecap="round" stroke-linejoin="round" d="M18.5 14.5h-2v8h2v-8Zm4 0h-2v8h2v-8Z" class="icon-primary-stroke"/>
    <path stroke="#fff" stroke-linecap="round" stroke-linejoin="round" d="M13.48 20.93c-.92.37-1.93.57-2.98.57-4.42 0-8-3.58-8-8s3.58-8 8-8c3.72 0 6.85 2.54 7.74 5.99M10.5 5.5v-2m2-2h-4v2h4v-2Zm4 6 1-1m-1-1 2 2m-14 0-1-1m-1 1 2-2" class="icon-primary-stroke"/>
    <path stroke="#fff" stroke-linecap="round" stroke-linejoin="round" d="M10.5 14.5a1 1 0 1 0 0-2 1 1 0 0 0 0 2Zm0-2v-4" class="icon-primary-stroke"/>
  </g>
</svg>
