<svg xmlns="http://www.w3.org/2000/svg" width="24" height="24" fill="none" viewBox="0 0 24 24">
  <g class="Name=TimerStart">
    <path stroke="#fff" stroke-linecap="round" stroke-linejoin="round" d="M13.48 20.93c-.92.37-1.93.57-2.98.57-4.42 0-8-3.58-8-8s3.58-8 8-8c4.08 0 7.45 3.05 7.94 7m-7.94-7v-2m2-2h-4v2h4v-2Zm4 6 1-1m-1-1 2 2m-14 0-1-1m-1 1 2-2" class="icon-primary-stroke"/>
    <path stroke="#fff" stroke-linecap="round" stroke-linejoin="round" d="M10.5 14.5a1 1 0 1 0 0-2 1 1 0 0 0 0 2Zm0-2v-4m6 14v-8l6 4-6 4Z" class="icon-primary-stroke"/>
  </g>
</svg>
